<?xml version="1.0" standalone="no"?>
<!DOCTYPE svg PUBLIC "-//W3C//DTD SVG 20010904//EN"
 "http://www.w3.org/TR/2001/REC-SVG-20010904/DTD/svg10.dtd">
<svg version="1.0" xmlns="http://www.w3.org/2000/svg"
 width="1280.000000pt" height="840.000000pt" viewBox="0 0 1280.000000 840.000000"
 preserveAspectRatio="xMidYMid meet">
<metadata>
Created by potrace 1.15, written by Peter Selinger 2001-2017
</metadata>
<g transform="translate(0.000000,840.000000) scale(0.100000,-0.100000)"
fill="#000000" stroke="none">
<path d="M1940 8394 c-475 -45 -866 -204 -1212 -493 -113 -95 -202 -190 -303
-323 -592 -781 -562 -1890 77 -2845 421 -631 1108 -1145 1813 -1358 202 -61
479 -114 598 -115 34 0 47 -4 47 -14 0 -15 21 -21 110 -31 253 -28 719 -99
960 -146 420 -82 612 -145 919 -299 177 -88 511 -285 511 -300 0 -4 -11 -17
-25 -30 l-26 -24 208 -208 208 -208 -520 -520 -520 -520 -95 0 -95 0 -88 -88
-87 -87 393 -393 392 -392 94 94 93 94 -10 108 -11 109 512 513 512 512 522
-522 523 -523 0 -100 0 -100 85 -85 85 -85 393 393 392 392 -95 95 -95 94
-109 -11 -109 -10 -513 513 -514 514 212 212 212 212 -23 25 -23 24 59 38
c218 141 572 325 778 404 236 91 698 186 1311 269 120 16 249 33 287 36 56 6
67 10 67 26 0 16 8 19 48 19 65 0 225 24 362 54 901 195 1751 843 2207 1681
538 990 433 2096 -267 2795 -324 324 -731 522 -1215 592 -115 16 -472 16 -590
0 -809 -112 -1551 -570 -2091 -1288 -353 -470 -587 -1053 -630 -1573 -5 -55
-11 -81 -19 -81 -8 0 -16 -20 -20 -52 -113 -884 -207 -1362 -325 -1659 -79
-198 -244 -512 -387 -736 l-39 -63 -29 30 -29 31 -213 -213 -213 -213 -208
208 -207 207 -22 -22 c-13 -12 -25 -20 -27 -17 -25 24 -217 364 -295 519 -172
346 -223 508 -316 1010 -37 204 -120 763 -131 893 -5 62 -10 77 -23 77 -14 0
-19 20 -29 119 -63 600 -353 1239 -788 1735 -306 351 -647 617 -1035 810 -329
164 -637 254 -984 286 -102 9 -303 11 -385 4z m17 -351 l-67 -68 -56 57 -57
56 59 7 c32 4 64 8 69 10 6 2 35 4 65 4 l55 1 -68 -67z m353 52 c222 -26 255
-36 314 -94 l51 -51 -190 -190 -190 -190 -165 165 -165 165 105 105 c58 58
107 105 110 105 3 0 61 -7 130 -15z m8398 -68 l82 -82 -165 -165 -165 -165
-190 190 c-105 104 -189 194 -187 200 9 26 355 95 522 104 13 1 50 -29 103
-82z m210 75 c22 -7 22 -8 -15 -44 l-39 -38 -44 45 -44 45 59 -1 c33 -1 70 -4
83 -7z m415 -88 c98 -32 319 -134 315 -145 -2 -5 -73 -78 -158 -164 l-154
-156 -190 191 -191 190 73 73 73 74 75 -18 c42 -10 112 -30 157 -45z m-9626
-36 c46 -46 83 -87 83 -93 0 -6 -84 -95 -188 -198 l-187 -187 -165 165 c-191
192 -189 163 -17 251 90 46 346 142 382 144 5 0 47 -37 92 -82z m1422 -130
l164 -80 -59 -59 c-32 -32 -63 -59 -69 -59 -11 0 -315 301 -315 312 0 13 111
-32 279 -114z m7066 -118 l190 -190 -163 -162 -162 -163 -190 190 -190 190
157 161 c87 89 160 162 163 163 3 0 91 -85 195 -189z m-500 70 l-109 -110 -38
37 -37 37 32 19 c33 21 248 127 257 127 2 0 -45 -49 -105 -110z m-6780 -90
l160 -160 -190 -190 -190 -190 -162 162 -163 163 187 187 c103 104 190 188
193 188 3 0 77 -72 165 -160z m8160 -50 c104 -104 187 -191 184 -192 -3 -2
-78 -75 -167 -163 l-162 -160 -190 190 -190 190 162 162 c90 90 165 163 168
163 3 0 90 -85 195 -190z m-9030 -20 l160 -160 -193 -192 -192 -193 -165 165
-165 165 187 187 c103 104 192 188 198 188 6 0 82 -72 170 -160z m9812 91 c78
-59 211 -190 270 -267 l32 -40 -175 -175 -174 -174 -190 190 -190 190 167 167
c92 93 171 168 175 168 4 0 42 -27 85 -59z m-10722 -511 l-191 -191 -164 166
c-91 91 -166 170 -168 175 -9 26 196 255 313 349 l50 40 175 -175 175 -174
-190 -190z m2365 412 c52 -36 132 -95 177 -131 l83 -66 -97 -97 -98 -98 -157
157 c-87 87 -158 162 -158 168 0 17 133 144 144 138 6 -3 54 -35 106 -71z
m5848 -179 l-163 -163 -73 73 c-56 55 -69 74 -59 82 7 5 44 35 82 66 39 31
117 89 174 128 l105 71 48 -47 48 -48 -162 -162z m447 -123 l190 -190 -163
-162 -162 -163 -190 190 -190 190 157 161 c87 89 160 162 163 162 3 1 91 -84
195 -188z m-6480 -20 l160 -160 -190 -190 -190 -190 -162 162 -163 163 187
187 c103 104 190 188 193 188 3 0 77 -72 165 -160z m7377 -402 l-162 -163
-190 190 -190 190 162 162 163 163 190 -190 190 -190 -163 -162z m-8247 332
l160 -160 -193 -193 -192 -192 -162 163 -163 162 190 190 c104 104 192 190
195 190 3 0 77 -72 165 -160z m9125 -405 l-165 -165 -190 190 -190 190 165
165 165 165 190 -190 190 -190 -165 -165z m-7586 384 c76 -78 144 -153 153
-166 16 -24 15 -25 -73 -114 -49 -49 -93 -89 -99 -89 -5 0 -81 71 -167 157
l-158 158 97 97 c54 54 101 98 104 98 4 0 68 -64 143 -141z m5054 68 l72 -72
-163 -163 -162 -162 -69 69 c-68 68 -69 70 -53 94 19 30 287 307 296 307 4 0
39 -33 79 -73z m-7470 -120 l162 -162 -190 -190 -190 -190 -162 160 c-89 88
-164 161 -167 163 -6 3 371 382 379 382 3 0 78 -73 168 -163z m10728 38 c61
-114 102 -214 139 -341 l26 -88 -88 -88 -88 -88 -192 192 -193 193 162 162
c90 90 167 162 172 160 5 -2 33 -48 62 -102z m-11603 -113 l157 -157 -190
-190 -190 -190 -73 73 -74 73 18 75 c10 42 30 112 45 157 28 86 133 317 143
317 3 0 77 -71 164 -158z m8702 -162 l190 -190 -163 -162 -162 -163 -190 190
-190 190 157 161 c87 89 160 162 163 162 3 1 91 -84 195 -188z m-5680 -20
l160 -160 -190 -190 -190 -190 -162 162 -163 163 187 187 c103 104 190 188
193 188 3 0 77 -72 165 -160z m6577 -402 l-162 -163 -190 190 -190 190 162
162 163 163 190 -190 190 -190 -163 -162z m-7447 332 l160 -160 -193 -193
-192 -192 -162 163 -163 162 190 190 c104 104 192 190 195 190 3 0 77 -72 165
-160z m8298 -58 l187 -187 -163 -163 -162 -162 -190 190 -190 190 160 160 c88
88 162 160 165 160 3 0 90 -84 193 -188z m-6851 71 c70 -96 148 -214 173 -264
l17 -32 -58 -58 -59 -59 -162 162 -163 163 87 87 c48 49 91 88 94 88 4 0 36
-39 71 -87z m4356 24 l62 -62 -163 -163 -163 -162 -32 33 c-18 18 -32 36 -32
40 0 23 243 377 259 377 3 0 35 -28 69 -63z m-6705 -459 c-103 -104 -191 -188
-195 -188 -7 0 -23 16 -203 198 l-120 122 190 190 190 190 162 -162 163 -163
-187 -187z m10102 -58 l-165 -165 -192 192 -193 193 165 165 165 165 192 -192
193 -193 -165 -165z m-10980 -20 l-190 -190 -165 165 -165 165 190 190 190
190 165 -165 165 -165 -190 -190z m7930 190 l190 -190 -163 -162 -162 -163
-190 190 -190 190 157 161 c87 89 160 162 163 162 3 1 91 -84 195 -188z
m-4880 -20 l160 -160 -190 -190 -190 -190 -162 162 -163 163 187 187 c103 104
190 188 193 188 3 0 77 -72 165 -160z m5935 -242 c0 -10 -308 -318 -317 -318
-5 0 -92 84 -195 187 l-188 188 162 162 163 163 187 -187 c104 -103 188 -191
188 -195z m2456 197 l6 -90 -68 67 -69 68 55 55 55 56 7 -33 c4 -18 10 -73 14
-123z m-9261 -25 l160 -160 -193 -193 -192 -192 -162 163 -163 162 190 190
c104 104 192 190 195 190 3 0 77 -72 165 -160z m7498 -58 l187 -187 -163 -163
-162 -162 -190 190 -190 190 160 160 c88 88 162 160 165 160 3 0 90 -84 193
-188z m-10405 40 l-43 -43 -3 38 c-2 21 -1 58 3 82 l7 43 39 -38 39 -38 -42
-44z m2005 -404 c-103 -104 -191 -188 -195 -188 -10 0 -318 308 -318 317 0 5
84 92 187 195 l188 188 162 -162 163 -163 -187 -187z m9272 292 l190 -190
-163 -162 -162 -163 -192 192 -193 193 160 160 c88 88 162 160 165 160 3 0 91
-86 195 -190z m-7041 82 c34 -68 116 -259 116 -271 0 -3 -56 50 -125 119
l-125 125 47 47 c26 27 48 48 50 48 2 0 18 -31 37 -68z m3674 -43 c-35 -36
-66 -67 -71 -68 -4 0 13 40 39 90 l45 91 25 -23 24 -23 -62 -67z m-6753 -59
l160 -160 -190 -190 -190 -190 -162 162 -163 163 187 187 c103 104 190 188
193 188 3 0 77 -72 165 -160z m10913 37 l103 -103 -15 -130 c-27 -226 -36
-259 -95 -318 l-51 -51 -190 190 -190 190 162 162 c90 90 165 163 168 163 3 0
52 -46 108 -103z m-11813 -457 c-104 -105 -194 -189 -200 -187 -24 8 -77 250
-94 432 l-11 109 82 83 83 83 165 -165 165 -165 -190 -190z m8000 260 l190
-190 -163 -162 -162 -163 -190 190 -190 190 157 161 c87 89 160 162 163 162 3
1 91 -84 195 -188z m-4080 -20 l160 -160 -190 -190 -190 -190 -162 162 -163
163 187 187 c103 104 190 188 193 188 3 0 77 -72 165 -160z m5135 -242 c0 -10
-308 -318 -317 -318 -5 0 -92 84 -195 187 l-188 188 162 162 163 163 187 -187
c104 -103 188 -191 188 -195z m-6005 172 l160 -160 -193 -193 -192 -192 -162
163 -163 162 190 190 c104 104 192 190 195 190 3 0 77 -72 165 -160z m6698
-58 l187 -187 -163 -163 -162 -162 -190 190 -190 190 160 160 c88 88 162 160
165 160 3 0 90 -84 193 -188z m-7600 -364 c-103 -104 -193 -188 -199 -188 -10
0 -292 282 -308 309 -6 9 45 67 180 202 l189 189 162 -162 163 -163 -187 -187z
m8472 292 l190 -190 -163 -162 -162 -163 -192 192 -193 193 160 160 c88 88
162 160 165 160 3 0 91 -86 195 -190z m-9320 -20 l160 -160 -190 -190 -190
-190 -162 162 -163 163 187 187 c103 104 190 188 193 188 3 0 77 -72 165 -160z
m10217 -402 l-162 -163 -190 190 -190 190 162 162 163 163 190 -190 190 -190
-163 -162z m-11087 332 l160 -160 -193 -193 -192 -192 -162 163 -163 162 190
190 c104 104 192 190 195 190 3 0 77 -72 165 -160z m7200 -440 l-160 -160 -63
63 -63 62 6 70 c10 111 33 251 61 369 l26 109 177 -177 176 -176 -160 -160z
m-3448 459 c18 -36 60 -258 74 -383 l11 -109 -86 -86 -86 -86 -160 160 -160
160 187 187 c104 104 192 187 198 185 5 -2 15 -15 22 -28z m4473 -374 c0 -13
-302 -315 -315 -315 -5 0 -94 84 -197 187 l-188 188 162 162 163 163 187 -187
c104 -103 188 -192 188 -198z m-5205 175 l160 -160 -193 -193 -192 -192 -162
163 -163 162 190 190 c104 104 192 190 195 190 3 0 77 -72 165 -160z m5898
-58 l187 -187 -163 -163 -162 -162 -190 190 -190 190 160 160 c88 88 162 160
165 160 3 0 90 -84 193 -188z m-6800 -364 c-103 -104 -192 -188 -198 -188 -13
0 -315 302 -315 315 0 5 84 94 187 197 l188 188 162 -162 163 -163 -187 -187z
m7672 292 l190 -190 -163 -162 -162 -163 -192 192 -193 193 160 160 c88 88
162 160 165 160 3 0 91 -86 195 -190z m-8520 -20 l160 -160 -190 -190 -190
-190 -162 162 -163 163 187 187 c103 104 190 188 193 188 3 0 77 -72 165 -160z
m9417 -402 l-162 -163 -190 190 -190 190 162 162 163 163 190 -190 190 -190
-163 -162z m-10287 332 l160 -160 -193 -193 -192 -192 -162 163 -163 162 190
190 c104 104 192 190 195 190 3 0 77 -72 165 -160z m10945 126 c0 -14 -92
-221 -142 -319 l-61 -119 -58 58 c-33 32 -59 62 -59 66 0 5 68 78 152 163 131
135 168 168 168 151z m-3520 -481 c0 -6 -70 -80 -155 -165 l-155 -155 -192
193 -193 192 160 160 160 160 187 -187 c104 -103 188 -192 188 -198z m-8177
83 c-27 -28 -39 -34 -45 -25 -15 21 -138 266 -138 274 0 4 49 -42 110 -102
l110 -109 -37 -38z m3765 98 c84 -84 152 -157 152 -162 0 -5 -84 -94 -188
-197 l-187 -187 -160 160 -160 160 190 190 c104 105 192 190 195 190 4 0 75
-69 158 -154z m5105 -64 l187 -187 -163 -163 -162 -162 -190 190 -190 190 160
160 c88 88 162 160 165 160 3 0 90 -84 193 -188z m-6000 -364 c-103 -104 -192
-188 -198 -188 -13 0 -315 302 -315 315 0 5 84 94 187 197 l188 188 162 -162
163 -163 -187 -187z m6872 292 l190 -190 -163 -162 -162 -163 -192 192 -193
193 160 160 c88 88 162 160 165 160 3 0 91 -86 195 -190z m-7720 -20 l160
-160 -190 -190 -190 -190 -162 162 -163 163 187 187 c103 104 190 188 193 188
3 0 77 -72 165 -160z m8617 -402 l-162 -163 -190 190 -190 190 162 162 163
163 190 -190 190 -190 -163 -162z m-6457 394 l-7 -65 -41 41 -41 42 44 45 c42
43 45 44 48 24 2 -13 1 -52 -3 -87z m3113 85 l22 -23 -25 -24 -25 -23 0 46 c0
26 1 47 3 47 2 0 13 -10 25 -23z m-6143 -147 l160 -160 -193 -193 -192 -192
-162 163 -163 162 190 190 c104 104 192 190 195 190 3 0 77 -72 165 -160z
m10218 62 l67 -68 -72 -106 c-40 -59 -102 -143 -137 -188 l-64 -81 -94 93
c-51 51 -92 96 -91 100 5 12 309 318 316 318 4 0 38 -31 75 -68z m-11006 -370
l-72 -73 -23 28 c-58 69 -145 187 -196 263 l-56 84 47 48 48 48 162 -162 163
-163 -73 -73z m7238 148 l190 -190 -155 -155 c-85 -85 -158 -155 -161 -155
-12 0 -96 203 -128 306 -16 54 -37 137 -46 183 l-17 84 58 58 c32 33 61 59 64
59 3 0 91 -85 195 -190z m-3520 65 l73 -75 -29 -112 c-33 -127 -94 -284 -146
-377 l-35 -63 -164 163 -164 164 187 187 c103 104 192 188 196 188 5 0 41 -34
82 -75z m4388 -143 l187 -187 -160 -160 -160 -160 -190 190 -190 190 157 157
c87 87 160 158 163 158 3 0 90 -84 193 -188z m-5210 -364 l-193 -193 -155 155
c-85 85 -155 159 -155 165 0 5 84 94 187 197 l188 188 160 -160 160 -160 -192
-192z m6082 292 l190 -190 -163 -162 -162 -163 -192 192 -193 193 160 160 c88
88 162 160 165 160 3 0 91 -86 195 -190z m-6920 -20 l160 -160 -190 -190 -190
-190 -162 162 -163 163 187 187 c103 104 190 188 193 188 3 0 77 -72 165 -160z
m7817 -402 l-162 -163 -190 190 -190 190 162 162 163 163 190 -190 190 -190
-163 -162z m-8687 332 l160 -160 -193 -193 -192 -192 -162 163 -163 162 190
190 c104 104 192 190 195 190 3 0 77 -72 165 -160z m9445 34 l95 -95 -158
-155 c-87 -85 -164 -154 -170 -154 -7 0 -53 41 -102 90 l-90 90 120 122 c180
183 196 198 204 198 3 0 49 -43 101 -96z m-10227 -336 c-37 -38 -73 -68 -79
-68 -7 0 -84 69 -171 154 l-158 154 75 76 75 76 162 -162 163 -163 -67 -67z
m7320 -290 l-172 -172 -42 30 c-68 47 -211 192 -274 278 l-57 78 168 169 169
169 190 -190 190 -190 -172 -172z m-4389 333 c119 -119 166 -173 161 -182 -22
-37 -153 -184 -203 -227 -69 -59 -168 -132 -179 -132 -5 0 -82 74 -173 165
l-165 165 190 190 c104 105 192 190 195 190 3 0 81 -76 174 -169z m5241 -51
l190 -190 -160 -160 -160 -160 -187 187 c-104 103 -188 192 -188 198 0 10 300
315 310 315 3 0 91 -85 195 -190z m-4570 -25 c113 -589 239 -904 578 -1448 44
-70 77 -130 74 -133 -2 -3 -56 27 -118 67 -296 187 -646 362 -899 451 -109 38
-415 109 -658 153 l-92 17 157 79 c209 104 318 183 488 354 186 186 298 347
392 565 21 48 39 87 39 86 1 0 18 -86 39 -191z m2765 162 c0 -21 95 -209 149
-297 140 -225 337 -425 568 -577 84 -55 317 -173 342 -173 39 0 -12 -13 -180
-45 -258 -50 -472 -105 -624 -160 -227 -82 -561 -252 -839 -427 -59 -38 -112
-68 -117 -66 -4 2 27 60 71 129 201 321 377 677 452 914 34 109 95 367 129
547 18 97 37 175 41 172 4 -3 8 -11 8 -17z m-4317 -155 l157 -157 -190 -190
-190 -190 -160 160 -160 160 187 187 c103 104 190 188 193 188 3 0 76 -71 163
-158z m7019 -404 l-162 -163 -190 190 -190 190 162 162 163 163 190 -190 190
-190 -163 -162z m-7887 332 l160 -160 -193 -193 -192 -192 -162 163 -163 162
190 190 c104 104 192 190 195 190 3 0 77 -72 165 -160z m8635 44 l85 -85 -35
-31 c-48 -41 -330 -228 -344 -228 -6 0 -36 25 -66 55 l-55 55 160 160 c88 88
162 160 165 160 3 0 44 -39 90 -86z m-9382 -311 c-18 -18 -37 -33 -44 -33 -14
0 -295 186 -344 228 l-35 31 65 65 65 66 162 -162 163 -162 -32 -33z m7455
-305 l-78 -77 -65 15 c-146 33 -326 101 -439 166 l-53 31 163 163 164 164 192
-192 193 -193 -77 -77z m-5339 74 c-120 -61 -321 -127 -458 -151 l-70 -12 -60
60 -61 61 190 190 190 190 157 -157 158 -158 -46 -23z m6276 -74 c0 -29 -195
-76 -408 -99 l-113 -12 -87 86 -87 87 160 160 160 160 187 -187 c104 -103 188
-191 188 -195z m-7247 174 l157 -157 -64 -64 -65 -64 -113 12 c-108 11 -309
48 -392 72 l-39 11 174 174 c96 96 176 174 179 174 3 0 76 -71 163 -158z
m7797 83 c24 -24 42 -46 39 -48 -27 -18 -318 -147 -332 -147 -7 0 237 240 243
240 3 0 26 -20 50 -45z m-8765 -66 l70 -71 -90 44 c-49 23 -92 44 -94 45 -3 2
39 53 44 53 0 0 32 -32 70 -71z m7495 -254 l44 -45 -64 0 c-36 0 -75 3 -88 6
-23 7 -23 7 14 45 21 22 41 39 44 39 3 0 26 -20 50 -45z m-6270 -20 l23 -25
-48 0 -48 0 23 25 c13 14 24 25 25 25 1 0 12 -11 25 -25z"/>
</g>
</svg>
