<?xml version="1.0" encoding="UTF-8"?>
<svg xmlns="http://www.w3.org/2000/svg" xmlns:xlink="http://www.w3.org/1999/xlink" width="56px" height="37px" viewBox="0 0 56 37" version="1.1">
<g id="surface1">
<path style=" stroke:none;fill-rule:nonzero;fill:rgb(0%,0%,0%);fill-opacity:1;" d="M 8.488281 0.0273438 C 6.410156 0.226562 4.699219 0.925781 3.183594 2.199219 C 2.691406 2.617188 2.300781 3.035156 1.859375 3.621094 C -0.730469 7.0625 -0.597656 11.945312 2.195312 16.152344 C 4.039062 18.933594 7.042969 21.195312 10.128906 22.132812 C 11.011719 22.402344 12.222656 22.636719 12.746094 22.640625 C 12.894531 22.640625 12.949219 22.65625 12.949219 22.703125 C 12.949219 22.769531 13.042969 22.792969 13.429688 22.839844 C 14.539062 22.960938 16.578125 23.273438 17.632812 23.480469 C 19.46875 23.84375 20.308594 24.121094 21.652344 24.796875 C 22.425781 25.1875 23.886719 26.054688 23.886719 26.121094 C 23.886719 26.136719 23.839844 26.195312 23.777344 26.253906 L 23.664062 26.359375 L 24.574219 27.273438 L 25.484375 28.191406 L 23.210938 30.480469 L 20.933594 32.769531 L 20.101562 32.769531 L 19.71875 33.160156 L 19.335938 33.542969 L 21.058594 35.273438 L 22.773438 37 L 23.183594 36.585938 L 23.589844 36.171875 L 23.546875 35.695312 L 23.5 35.214844 L 25.738281 32.957031 L 27.976562 30.703125 L 30.261719 33 L 32.550781 35.304688 L 32.550781 36.183594 L 33.292969 36.933594 L 35.011719 35.203125 L 36.726562 33.476562 L 36.3125 33.058594 L 35.898438 32.644531 L 35.421875 32.691406 L 34.941406 32.734375 L 32.699219 30.476562 L 30.449219 28.210938 L 31.378906 27.277344 L 32.304688 26.34375 L 32.203125 26.234375 L 32.105469 26.128906 L 32.363281 25.960938 C 33.316406 25.339844 34.863281 24.53125 35.765625 24.183594 C 36.796875 23.78125 38.820312 23.363281 41.5 22.996094 C 42.027344 22.925781 42.589844 22.851562 42.757812 22.839844 C 43 22.8125 43.050781 22.792969 43.050781 22.722656 C 43.050781 22.652344 43.085938 22.640625 43.261719 22.640625 C 43.542969 22.640625 44.246094 22.535156 44.84375 22.402344 C 48.785156 21.542969 52.503906 18.6875 54.5 15 C 56.851562 10.636719 56.394531 5.765625 53.332031 2.6875 C 51.914062 1.257812 50.132812 0.386719 48.015625 0.078125 C 47.511719 0.0078125 45.949219 0.0078125 45.433594 0.078125 C 41.894531 0.574219 38.648438 2.589844 36.285156 5.753906 C 34.742188 7.824219 33.71875 10.390625 33.53125 12.679688 C 33.507812 12.921875 33.480469 13.039062 33.445312 13.039062 C 33.410156 13.039062 33.375 13.125 33.359375 13.265625 C 32.863281 17.160156 32.453125 19.265625 31.9375 20.574219 C 31.59375 21.445312 30.871094 22.828125 30.246094 23.816406 L 30.074219 24.09375 L 29.945312 23.960938 L 29.820312 23.824219 L 28.886719 24.761719 L 27.957031 25.703125 L 27.046875 24.785156 L 26.140625 23.875 L 26.042969 23.972656 C 25.988281 24.023438 25.933594 24.058594 25.925781 24.046875 C 25.816406 23.941406 24.976562 22.441406 24.636719 21.757812 C 23.882812 20.234375 23.660156 19.523438 23.253906 17.3125 C 23.089844 16.414062 22.726562 13.949219 22.679688 13.378906 C 22.65625 13.105469 22.636719 13.039062 22.578125 13.039062 C 22.519531 13.039062 22.496094 12.949219 22.453125 12.515625 C 22.175781 9.871094 20.90625 7.054688 19.003906 4.871094 C 17.667969 3.324219 16.175781 2.152344 14.476562 1.304688 C 13.039062 0.582031 11.691406 0.183594 10.171875 0.0429688 C 9.726562 0.00390625 8.847656 -0.00390625 8.488281 0.0273438 Z M 8.5625 1.574219 L 8.269531 1.871094 L 8.023438 1.621094 L 7.773438 1.375 L 8.03125 1.34375 C 8.171875 1.324219 8.3125 1.308594 8.335938 1.300781 C 8.359375 1.289062 8.488281 1.28125 8.617188 1.28125 L 8.859375 1.277344 Z M 10.105469 1.34375 C 11.078125 1.457031 11.222656 1.503906 11.480469 1.757812 L 11.703125 1.980469 L 10.871094 2.820312 L 10.039062 3.65625 L 9.320312 2.929688 L 8.597656 2.203125 L 9.054688 1.738281 C 9.308594 1.484375 9.523438 1.277344 9.539062 1.277344 C 9.550781 1.277344 9.804688 1.308594 10.105469 1.34375 Z M 46.847656 1.644531 L 47.207031 2.003906 L 45.761719 3.457031 L 44.929688 2.621094 C 44.472656 2.164062 44.105469 1.765625 44.113281 1.738281 C 44.152344 1.625 45.667969 1.320312 46.398438 1.28125 C 46.453125 1.277344 46.617188 1.410156 46.847656 1.644531 Z M 47.765625 1.3125 C 47.863281 1.34375 47.863281 1.347656 47.699219 1.507812 L 47.53125 1.671875 L 47.335938 1.476562 L 47.144531 1.277344 L 47.402344 1.28125 C 47.546875 1.285156 47.710938 1.300781 47.765625 1.3125 Z M 49.582031 1.699219 C 50.011719 1.839844 50.976562 2.289062 50.960938 2.339844 C 50.953125 2.359375 50.640625 2.683594 50.269531 3.0625 L 49.59375 3.75 L 48.765625 2.90625 L 47.929688 2.070312 L 48.246094 1.75 L 48.566406 1.421875 L 48.894531 1.503906 C 49.078125 1.546875 49.386719 1.632812 49.582031 1.699219 Z M 7.46875 1.859375 C 7.667969 2.0625 7.832031 2.242188 7.832031 2.269531 C 7.832031 2.292969 7.464844 2.6875 7.007812 3.140625 L 6.191406 3.964844 L 5.46875 3.238281 C 4.632812 2.390625 4.640625 2.519531 5.394531 2.132812 C 5.789062 1.929688 6.90625 1.507812 7.066406 1.496094 C 7.085938 1.496094 7.269531 1.660156 7.46875 1.859375 Z M 13.6875 2.429688 L 14.40625 2.785156 L 14.148438 3.042969 C 14.007812 3.183594 13.875 3.304688 13.847656 3.304688 C 13.796875 3.304688 12.46875 1.976562 12.46875 1.929688 C 12.46875 1.871094 12.953125 2.070312 13.6875 2.429688 Z M 44.601562 2.953125 L 45.433594 3.789062 L 44.722656 4.5 L 44.011719 5.21875 L 43.179688 4.382812 L 42.351562 3.546875 L 43.035156 2.835938 C 43.417969 2.445312 43.738281 2.125 43.75 2.117188 C 43.761719 2.117188 44.148438 2.492188 44.601562 2.953125 Z M 42.414062 2.644531 L 41.9375 3.128906 L 41.609375 2.800781 L 41.75 2.71875 C 41.894531 2.625 42.835938 2.160156 42.875 2.160156 C 42.882812 2.160156 42.679688 2.375 42.414062 2.644531 Z M 12.753906 3.039062 L 13.453125 3.742188 L 12.621094 4.582031 L 11.789062 5.417969 L 11.082031 4.703125 L 10.367188 3.984375 L 11.1875 3.164062 C 11.636719 2.703125 12.019531 2.335938 12.03125 2.335938 C 12.042969 2.335938 12.367188 2.652344 12.753906 3.039062 Z M 48.453125 3.257812 C 48.90625 3.71875 49.269531 4.101562 49.257812 4.105469 C 49.246094 4.113281 48.917969 4.4375 48.527344 4.824219 L 47.820312 5.527344 L 46.15625 3.855469 L 46.863281 3.140625 C 47.257812 2.746094 47.585938 2.421875 47.601562 2.421875 C 47.613281 2.421875 47.992188 2.796875 48.453125 3.257812 Z M 8.945312 3.347656 L 9.648438 4.050781 L 8.800781 4.898438 L 7.960938 5.75 L 7.242188 5.019531 L 6.519531 4.292969 L 7.335938 3.472656 C 7.789062 3.011719 8.175781 2.644531 8.203125 2.644531 C 8.230469 2.644531 8.5625 2.960938 8.945312 3.347656 Z M 51.875 2.945312 C 52.214844 3.207031 52.796875 3.785156 53.054688 4.121094 L 53.195312 4.300781 L 52.429688 5.070312 L 51.667969 5.835938 L 50.835938 5 L 50.007812 4.164062 L 50.738281 3.425781 C 51.140625 3.015625 51.484375 2.6875 51.503906 2.6875 C 51.519531 2.6875 51.6875 2.804688 51.875 2.945312 Z M 4.964844 5.199219 L 4.128906 6.039062 L 3.414062 5.308594 C 3.015625 4.90625 2.6875 4.558594 2.675781 4.535156 C 2.636719 4.421875 3.535156 3.414062 4.046875 3 L 4.265625 2.824219 L 5.03125 3.59375 L 5.796875 4.359375 Z M 15.3125 3.382812 C 15.539062 3.542969 15.890625 3.800781 16.085938 3.960938 L 16.449219 4.25 L 16.027344 4.679688 L 15.597656 5.109375 L 14.910156 4.417969 C 14.53125 4.035156 14.21875 3.703125 14.21875 3.679688 C 14.21875 3.601562 14.800781 3.042969 14.847656 3.070312 C 14.875 3.082031 15.085938 3.222656 15.3125 3.382812 Z M 40.898438 4.171875 L 40.183594 4.890625 L 39.863281 4.566406 C 39.621094 4.324219 39.5625 4.242188 39.605469 4.207031 C 39.636719 4.183594 39.800781 4.050781 39.964844 3.914062 C 40.136719 3.777344 40.476562 3.523438 40.726562 3.351562 L 41.1875 3.039062 L 41.605469 3.457031 Z M 42.851562 4.714844 L 43.683594 5.550781 L 42.972656 6.261719 L 42.261719 6.980469 L 41.429688 6.144531 L 40.601562 5.308594 L 41.285156 4.597656 C 41.667969 4.207031 41.988281 3.886719 42 3.886719 C 42.011719 3.878906 42.398438 4.253906 42.851562 4.714844 Z M 14.503906 4.800781 L 15.203125 5.507812 L 13.539062 7.179688 L 12.832031 6.464844 L 12.117188 5.75 L 12.9375 4.925781 C 13.386719 4.464844 13.769531 4.097656 13.78125 4.097656 C 13.792969 4.097656 14.117188 4.414062 14.503906 4.800781 Z M 46.777344 6.570312 L 46.070312 7.289062 L 44.40625 5.617188 L 45.113281 4.902344 L 45.828125 4.183594 L 46.660156 5.019531 L 47.492188 5.859375 Z M 10.695312 5.109375 L 11.398438 5.8125 L 10.550781 6.664062 L 9.710938 7.511719 L 9.003906 6.792969 L 8.289062 6.078125 L 9.121094 5.242188 C 9.578125 4.785156 9.960938 4.40625 9.976562 4.40625 C 9.988281 4.40625 10.3125 4.722656 10.695312 5.109375 Z M 50.617188 6.894531 L 49.898438 7.621094 L 49.066406 6.785156 L 48.234375 5.945312 L 49.679688 4.492188 L 50.507812 5.328125 L 51.339844 6.167969 Z M 17.429688 5.203125 C 17.761719 5.546875 18.058594 5.875 18.097656 5.933594 C 18.167969 6.039062 18.164062 6.042969 17.78125 6.433594 C 17.566406 6.652344 17.375 6.828125 17.347656 6.828125 C 17.324219 6.828125 16.992188 6.515625 16.617188 6.136719 L 15.925781 5.441406 L 16.347656 5.011719 C 16.585938 4.773438 16.792969 4.582031 16.804688 4.582031 C 16.820312 4.582031 17.101562 4.863281 17.429688 5.203125 Z M 39.542969 4.902344 L 39.855469 5.21875 L 39.144531 5.9375 L 38.433594 6.652344 L 38.132812 6.347656 C 37.835938 6.046875 37.832031 6.039062 37.902344 5.933594 C 37.984375 5.800781 39.15625 4.582031 39.195312 4.582031 C 39.214844 4.582031 39.367188 4.726562 39.542969 4.902344 Z M 6.859375 5.429688 L 7.570312 6.144531 L 6.738281 6.980469 L 5.90625 7.820312 L 5.199219 7.113281 C 4.808594 6.726562 4.480469 6.40625 4.46875 6.394531 C 4.441406 6.382812 6.089844 4.714844 6.125 4.714844 C 6.136719 4.714844 6.464844 5.035156 6.859375 5.429688 Z M 53.796875 5.265625 C 54.0625 5.765625 54.242188 6.207031 54.402344 6.765625 L 54.515625 7.152344 L 54.132812 7.539062 L 53.746094 7.929688 L 52.90625 7.082031 L 52.0625 6.234375 L 52.769531 5.519531 C 53.164062 5.121094 53.5 4.804688 53.523438 4.8125 C 53.546875 4.824219 53.667969 5.027344 53.796875 5.265625 Z M 3.03125 5.761719 L 3.71875 6.453125 L 2.054688 8.125 L 1.738281 7.804688 L 1.414062 7.484375 L 1.492188 7.152344 C 1.535156 6.96875 1.625 6.660156 1.6875 6.460938 C 1.8125 6.082031 2.269531 5.066406 2.3125 5.066406 C 2.328125 5.066406 2.652344 5.378906 3.03125 5.761719 Z M 41.101562 6.476562 L 41.933594 7.3125 L 40.511719 8.742188 L 39.679688 7.90625 L 38.851562 7.070312 L 39.535156 6.359375 C 39.917969 5.96875 40.238281 5.648438 40.25 5.648438 C 40.261719 5.640625 40.648438 6.015625 41.101562 6.476562 Z M 16.253906 6.5625 L 16.953125 7.269531 L 15.289062 8.941406 L 14.582031 8.226562 L 13.867188 7.511719 L 14.6875 6.6875 C 15.136719 6.226562 15.519531 5.859375 15.53125 5.859375 C 15.542969 5.859375 15.867188 6.175781 16.253906 6.5625 Z M 45.027344 8.332031 L 44.320312 9.050781 L 42.65625 7.378906 L 43.363281 6.664062 L 44.078125 5.945312 L 44.910156 6.785156 L 45.742188 7.621094 Z M 12.445312 6.871094 L 13.148438 7.578125 L 12.300781 8.425781 L 11.460938 9.273438 L 10.753906 8.554688 L 10.039062 7.839844 L 10.871094 7.003906 C 11.328125 6.546875 11.710938 6.167969 11.726562 6.167969 C 11.738281 6.167969 12.0625 6.484375 12.445312 6.871094 Z M 48.75 7.125 L 49.570312 7.949219 L 48.855469 8.667969 L 48.148438 9.382812 L 47.316406 8.546875 L 46.484375 7.707031 L 47.183594 7.003906 C 47.570312 6.617188 47.894531 6.296875 47.90625 6.296875 C 47.917969 6.296875 48.300781 6.667969 48.75 7.125 Z M 18.777344 6.8125 C 19.082031 7.238281 19.425781 7.757812 19.535156 7.976562 L 19.609375 8.117188 L 19.355469 8.375 L 19.097656 8.632812 L 17.675781 7.203125 L 18.054688 6.820312 C 18.265625 6.601562 18.453125 6.429688 18.46875 6.429688 C 18.484375 6.429688 18.625 6.601562 18.777344 6.8125 Z M 37.835938 6.707031 L 38.105469 6.980469 L 37.394531 7.699219 L 36.679688 8.414062 L 36.539062 8.269531 C 36.460938 8.1875 36.398438 8.109375 36.398438 8.089844 C 36.398438 7.992188 37.464844 6.429688 37.53125 6.429688 C 37.546875 6.429688 37.6875 6.554688 37.835938 6.707031 Z M 8.5 8.730469 C 8.050781 9.1875 7.664062 9.558594 7.648438 9.558594 C 7.617188 9.558594 7.546875 9.488281 6.757812 8.6875 L 6.234375 8.148438 L 7.898438 6.476562 L 8.605469 7.1875 L 9.320312 7.90625 Z M 52.695312 8.984375 L 51.976562 9.710938 L 51.136719 8.867188 L 50.289062 8.015625 L 51.734375 6.5625 L 52.574219 7.410156 L 53.417969 8.257812 Z M 4.660156 9.074219 L 3.828125 9.910156 L 2.382812 8.457031 L 4.046875 6.785156 L 5.492188 8.238281 Z M 39.351562 8.238281 L 40.183594 9.074219 L 38.761719 10.503906 L 37.929688 9.667969 L 37.101562 8.832031 L 37.785156 8.121094 C 38.167969 7.730469 38.488281 7.410156 38.5 7.410156 C 38.511719 7.40625 38.898438 7.777344 39.351562 8.238281 Z M 18.003906 8.324219 L 18.703125 9.03125 L 17.039062 10.703125 L 16.332031 9.988281 L 15.617188 9.273438 L 16.4375 8.449219 C 16.886719 7.992188 17.269531 7.621094 17.28125 7.621094 C 17.292969 7.621094 17.617188 7.9375 18.003906 8.324219 Z M 43.96875 9.390625 C 43.96875 9.433594 42.621094 10.792969 42.582031 10.792969 C 42.558594 10.792969 42.179688 10.421875 41.730469 9.96875 L 40.90625 9.140625 L 41.613281 8.425781 L 42.328125 7.707031 L 43.144531 8.53125 C 43.601562 8.984375 43.96875 9.375 43.96875 9.390625 Z M 54.714844 8.523438 L 54.738281 8.917969 L 54.441406 8.625 L 54.140625 8.324219 L 54.382812 8.082031 L 54.621094 7.835938 L 54.652344 7.980469 C 54.671875 8.0625 54.695312 8.304688 54.714844 8.523438 Z M 14.195312 8.632812 L 14.898438 9.339844 L 14.050781 10.1875 L 13.210938 11.035156 L 12.503906 10.316406 L 11.789062 9.601562 L 12.621094 8.765625 C 13.078125 8.308594 13.460938 7.929688 13.476562 7.929688 C 13.488281 7.929688 13.8125 8.246094 14.195312 8.632812 Z M 47 8.890625 L 47.820312 9.710938 L 47.105469 10.429688 L 46.398438 11.144531 L 45.566406 10.308594 L 44.734375 9.46875 L 45.433594 8.765625 C 45.820312 8.378906 46.144531 8.0625 46.15625 8.0625 C 46.167969 8.0625 46.550781 8.429688 47 8.890625 Z M 1.480469 8.710938 L 1.289062 8.902344 L 1.277344 8.734375 C 1.269531 8.640625 1.273438 8.480469 1.289062 8.375 L 1.320312 8.183594 L 1.664062 8.519531 Z M 10.25 10.492188 C 9.800781 10.949219 9.414062 11.320312 9.398438 11.320312 C 9.355469 11.320312 8.007812 9.964844 8.007812 9.925781 C 8.007812 9.902344 8.375 9.519531 8.824219 9.066406 L 9.648438 8.238281 L 10.355469 8.949219 L 11.070312 9.667969 Z M 50.816406 9.207031 L 51.648438 10.042969 L 50.933594 10.757812 L 50.226562 11.472656 L 49.386719 10.628906 L 48.539062 9.777344 L 49.242188 9.074219 C 49.625 8.6875 49.949219 8.367188 49.960938 8.367188 C 49.976562 8.367188 50.359375 8.746094 50.816406 9.207031 Z M 20.011719 8.84375 C 20.160156 9.144531 20.519531 9.984375 20.519531 10.039062 C 20.519531 10.050781 20.273438 9.816406 19.972656 9.515625 L 19.425781 8.964844 L 19.628906 8.757812 C 19.746094 8.636719 19.839844 8.546875 19.847656 8.546875 C 19.859375 8.546875 19.929688 8.683594 20.011719 8.84375 Z M 36.085938 9.035156 C 35.933594 9.191406 35.796875 9.328125 35.773438 9.332031 C 35.757812 9.332031 35.832031 9.15625 35.945312 8.9375 L 36.140625 8.535156 L 36.25 8.636719 L 36.355469 8.738281 Z M 6.539062 9.292969 L 7.242188 10 L 5.578125 11.671875 L 4.871094 10.960938 L 4.15625 10.242188 L 4.972656 9.417969 C 5.425781 8.960938 5.804688 8.589844 5.820312 8.589844 C 5.832031 8.589844 6.15625 8.90625 6.539062 9.292969 Z M 54.285156 9.132812 L 54.734375 9.585938 L 54.671875 10.15625 C 54.550781 11.152344 54.511719 11.296875 54.253906 11.558594 L 54.03125 11.78125 L 52.367188 10.109375 L 53.078125 9.394531 C 53.472656 9 53.800781 8.675781 53.8125 8.675781 C 53.824219 8.675781 54.039062 8.878906 54.285156 9.132812 Z M 2.601562 11.144531 C 2.148438 11.605469 1.753906 11.976562 1.726562 11.96875 C 1.625 11.933594 1.390625 10.867188 1.316406 10.066406 L 1.269531 9.585938 L 1.628906 9.21875 L 1.992188 8.855469 L 2.710938 9.582031 L 3.433594 10.308594 Z M 37.601562 10 L 38.433594 10.835938 L 37.011719 12.265625 L 36.179688 11.429688 L 35.351562 10.59375 L 36.035156 9.882812 C 36.417969 9.492188 36.738281 9.171875 36.75 9.171875 C 36.761719 9.167969 37.148438 9.539062 37.601562 10 Z M 19.753906 10.085938 L 20.453125 10.792969 L 18.789062 12.464844 L 18.082031 11.75 L 17.367188 11.035156 L 18.1875 10.210938 C 18.636719 9.753906 19.019531 9.382812 19.03125 9.382812 C 19.042969 9.382812 19.367188 9.699219 19.753906 10.085938 Z M 42.21875 11.152344 C 42.21875 11.195312 40.871094 12.554688 40.832031 12.554688 C 40.808594 12.554688 40.429688 12.183594 39.980469 11.730469 L 39.15625 10.902344 L 39.863281 10.1875 L 40.578125 9.46875 L 41.394531 10.292969 C 41.851562 10.746094 42.21875 11.136719 42.21875 11.152344 Z M 15.945312 10.394531 L 16.648438 11.101562 L 15.800781 11.949219 L 14.960938 12.796875 L 14.253906 12.078125 L 13.539062 11.363281 L 14.371094 10.527344 C 14.828125 10.070312 15.210938 9.691406 15.226562 9.691406 C 15.238281 9.691406 15.5625 10.007812 15.945312 10.394531 Z M 45.25 10.652344 L 46.070312 11.472656 L 45.355469 12.191406 L 44.648438 12.90625 L 43.816406 12.070312 L 42.984375 11.230469 L 43.683594 10.527344 C 44.070312 10.140625 44.394531 9.824219 44.40625 9.824219 C 44.417969 9.824219 44.800781 10.191406 45.25 10.652344 Z M 12 12.253906 C 11.550781 12.710938 11.15625 13.082031 11.128906 13.082031 C 11.085938 13.082031 9.851562 11.839844 9.78125 11.722656 C 9.757812 11.679688 9.980469 11.425781 10.570312 10.832031 L 11.398438 10 L 12.105469 10.710938 L 12.820312 11.429688 Z M 49.066406 10.96875 L 49.898438 11.804688 L 49.183594 12.519531 L 48.476562 13.234375 L 47.636719 12.390625 L 46.789062 11.539062 L 47.492188 10.835938 C 47.875 10.449219 48.199219 10.132812 48.210938 10.132812 C 48.226562 10.132812 48.609375 10.507812 49.066406 10.96875 Z M 8.289062 11.054688 L 8.992188 11.761719 L 7.328125 13.433594 L 6.621094 12.722656 L 5.90625 12.003906 L 6.722656 11.179688 C 7.175781 10.722656 7.554688 10.351562 7.570312 10.351562 C 7.582031 10.351562 7.90625 10.667969 8.289062 11.054688 Z M 52.988281 12.828125 L 52.28125 13.542969 L 50.617188 11.871094 L 51.328125 11.15625 L 52.039062 10.4375 L 52.871094 11.277344 L 53.703125 12.113281 Z M 4.484375 11.363281 L 5.183594 12.070312 L 4.339844 12.917969 L 3.5 13.765625 L 2.792969 13.046875 L 2.078125 12.332031 L 2.910156 11.496094 C 3.363281 11.039062 3.75 10.660156 3.761719 10.660156 C 3.777344 10.660156 4.097656 10.976562 4.484375 11.363281 Z M 35.984375 13.300781 L 35.285156 14.007812 L 34.734375 13.457031 L 34.757812 13.148438 C 34.804688 12.660156 34.902344 12.042969 35.027344 11.523438 L 35.140625 11.042969 L 35.914062 11.824219 L 36.683594 12.597656 Z M 20.898438 11.28125 C 20.976562 11.4375 21.160156 12.417969 21.222656 12.96875 L 21.269531 13.449219 L 20.519531 14.207031 L 19.820312 13.5 L 19.117188 12.796875 L 19.9375 11.972656 C 20.390625 11.515625 20.777344 11.148438 20.804688 11.15625 C 20.824219 11.167969 20.867188 11.222656 20.898438 11.28125 Z M 40.46875 12.929688 C 40.46875 12.984375 39.148438 14.316406 39.089844 14.316406 C 39.070312 14.316406 38.679688 13.945312 38.230469 13.492188 L 37.40625 12.664062 L 38.113281 11.949219 L 38.828125 11.230469 L 39.644531 12.054688 C 40.101562 12.507812 40.46875 12.902344 40.46875 12.929688 Z M 17.695312 12.15625 L 18.398438 12.863281 L 17.550781 13.710938 L 16.710938 14.558594 L 16.003906 13.839844 L 15.289062 13.125 L 16.121094 12.289062 C 16.578125 11.832031 16.960938 11.453125 16.976562 11.453125 C 16.988281 11.453125 17.3125 11.769531 17.695312 12.15625 Z M 43.5 12.414062 L 44.320312 13.234375 L 43.605469 13.953125 L 42.898438 14.667969 L 42.066406 13.832031 L 41.234375 12.992188 L 41.933594 12.289062 C 42.320312 11.902344 42.644531 11.585938 42.65625 11.585938 C 42.667969 11.585938 43.050781 11.953125 43.5 12.414062 Z M 13.75 14.015625 C 13.300781 14.472656 12.910156 14.84375 12.882812 14.84375 C 12.828125 14.84375 11.507812 13.515625 11.507812 13.457031 C 11.507812 13.433594 11.875 13.042969 12.324219 12.589844 L 13.148438 11.761719 L 13.855469 12.472656 L 14.570312 13.191406 Z M 47.316406 12.730469 L 48.148438 13.566406 L 47.433594 14.28125 L 46.726562 15 L 45.886719 14.152344 L 45.039062 13.300781 L 45.742188 12.597656 C 46.125 12.210938 46.449219 11.894531 46.460938 11.894531 C 46.476562 11.894531 46.859375 12.273438 47.316406 12.730469 Z M 10.039062 12.816406 L 10.742188 13.523438 L 9.078125 15.195312 L 8.371094 14.484375 L 7.65625 13.765625 L 8.472656 12.941406 C 8.925781 12.484375 9.304688 12.113281 9.320312 12.113281 C 9.332031 12.113281 9.65625 12.429688 10.039062 12.816406 Z M 51.238281 14.589844 L 50.53125 15.304688 L 48.867188 13.632812 L 50.289062 12.203125 L 51.953125 13.875 Z M 6.234375 13.125 L 6.933594 13.832031 L 6.089844 14.679688 L 5.25 15.527344 L 4.542969 14.808594 L 3.828125 14.09375 L 4.660156 13.257812 C 5.113281 12.800781 5.5 12.421875 5.511719 12.421875 C 5.527344 12.421875 5.847656 12.738281 6.234375 13.125 Z M 54.117188 12.570312 C 54.117188 12.632812 53.714844 13.542969 53.496094 13.976562 L 53.230469 14.5 L 52.976562 14.246094 C 52.832031 14.105469 52.71875 13.972656 52.71875 13.953125 C 52.71875 13.933594 53.015625 13.609375 53.382812 13.234375 C 53.957031 12.640625 54.117188 12.496094 54.117188 12.570312 Z M 38.71875 14.691406 C 38.71875 14.714844 38.414062 15.042969 38.039062 15.417969 L 37.363281 16.097656 L 36.523438 15.25 L 35.679688 14.402344 L 36.378906 13.699219 L 37.078125 12.992188 L 37.894531 13.816406 C 38.351562 14.269531 38.71875 14.664062 38.71875 14.691406 Z M 2.945312 14.324219 C 2.828125 14.449219 2.773438 14.472656 2.746094 14.433594 C 2.683594 14.34375 2.144531 13.261719 2.144531 13.226562 C 2.144531 13.210938 2.359375 13.414062 2.625 13.675781 L 3.105469 14.15625 Z M 19.417969 13.894531 C 19.785156 14.261719 20.082031 14.585938 20.082031 14.605469 C 20.082031 14.628906 19.714844 15.019531 19.257812 15.472656 L 18.441406 16.296875 L 17.742188 15.59375 L 17.039062 14.886719 L 17.871094 14.050781 C 18.328125 13.589844 18.710938 13.214844 18.726562 13.214844 C 18.742188 13.214844 19.054688 13.519531 19.417969 13.894531 Z M 41.75 14.175781 L 42.570312 15 L 41.855469 15.714844 L 41.148438 16.429688 L 39.484375 14.757812 L 40.183594 14.050781 C 40.570312 13.664062 40.894531 13.347656 40.90625 13.347656 C 40.917969 13.347656 41.300781 13.714844 41.75 14.175781 Z M 15.5 15.777344 C 15.050781 16.234375 14.660156 16.605469 14.632812 16.605469 C 14.578125 16.605469 13.257812 15.277344 13.257812 15.21875 C 13.257812 15.195312 13.625 14.804688 14.074219 14.351562 L 14.898438 13.523438 L 15.605469 14.234375 L 16.320312 14.953125 Z M 45.566406 14.492188 L 46.398438 15.328125 L 45.683594 16.042969 L 44.976562 16.761719 L 44.136719 15.914062 L 43.289062 15.0625 L 43.992188 14.359375 C 44.375 13.972656 44.699219 13.65625 44.710938 13.65625 C 44.726562 13.65625 45.109375 14.035156 45.566406 14.492188 Z M 11.789062 14.578125 L 12.492188 15.285156 L 10.828125 16.957031 L 10.121094 16.246094 L 9.40625 15.527344 L 10.222656 14.703125 C 10.675781 14.246094 11.054688 13.875 11.070312 13.875 C 11.082031 13.875 11.40625 14.191406 11.789062 14.578125 Z M 49.488281 16.351562 L 48.78125 17.070312 L 47.949219 16.230469 L 47.117188 15.394531 L 48.539062 13.964844 L 50.203125 15.636719 Z M 21.242188 14.613281 L 21.210938 14.902344 L 21.03125 14.722656 L 20.851562 14.535156 L 21.042969 14.335938 C 21.226562 14.148438 21.242188 14.144531 21.253906 14.230469 C 21.261719 14.289062 21.257812 14.460938 21.242188 14.613281 Z M 34.859375 14.242188 L 34.957031 14.34375 L 34.847656 14.449219 L 34.738281 14.550781 L 34.738281 14.347656 C 34.738281 14.230469 34.742188 14.140625 34.75 14.140625 C 34.757812 14.140625 34.808594 14.183594 34.859375 14.242188 Z M 7.984375 14.886719 L 8.683594 15.59375 L 7.839844 16.441406 L 7 17.289062 L 6.292969 16.570312 L 5.578125 15.855469 L 6.410156 15.019531 C 6.863281 14.5625 7.25 14.183594 7.261719 14.183594 C 7.277344 14.183594 7.597656 14.5 7.984375 14.886719 Z M 52.6875 14.613281 L 52.980469 14.914062 L 52.667969 15.382812 C 52.492188 15.640625 52.21875 16.011719 52.066406 16.210938 L 51.785156 16.566406 L 51.375 16.15625 C 51.152344 15.933594 50.972656 15.734375 50.976562 15.714844 C 51 15.664062 52.328125 14.316406 52.359375 14.316406 C 52.378906 14.316406 52.527344 14.453125 52.6875 14.613281 Z M 4.535156 16.246094 L 4.222656 16.566406 L 4.121094 16.441406 C 3.867188 16.140625 3.488281 15.621094 3.265625 15.285156 L 3.019531 14.914062 L 3.222656 14.703125 L 3.433594 14.492188 L 4.855469 15.921875 Z M 36.203125 15.59375 L 37.035156 16.429688 L 36.355469 17.113281 C 35.984375 17.488281 35.664062 17.796875 35.652344 17.796875 C 35.597656 17.796875 35.230469 16.902344 35.09375 16.449219 C 35.023438 16.210938 34.929688 15.84375 34.890625 15.640625 L 34.816406 15.269531 L 35.070312 15.015625 C 35.210938 14.871094 35.335938 14.757812 35.351562 14.757812 C 35.363281 14.757812 35.75 15.128906 36.203125 15.59375 Z M 20.804688 15.304688 L 21.121094 15.636719 L 20.996094 16.128906 C 20.851562 16.691406 20.585938 17.382812 20.355469 17.789062 L 20.203125 18.066406 L 19.484375 17.351562 L 18.769531 16.628906 L 19.585938 15.804688 C 20.039062 15.347656 20.425781 14.976562 20.445312 14.976562 C 20.464844 14.976562 20.625 15.125 20.804688 15.304688 Z M 40 15.9375 L 40.820312 16.761719 L 40.117188 17.464844 L 39.417969 18.167969 L 38.585938 17.332031 L 37.757812 16.496094 L 38.441406 15.804688 C 38.824219 15.421875 39.144531 15.109375 39.15625 15.109375 C 39.167969 15.109375 39.550781 15.476562 40 15.9375 Z M 17.207031 17.539062 L 16.363281 18.390625 L 15.683594 17.707031 C 15.3125 17.332031 15.007812 17.007812 15.007812 16.980469 C 15.007812 16.957031 15.375 16.566406 15.824219 16.113281 L 16.648438 15.285156 L 17.347656 15.988281 L 18.046875 16.695312 Z M 43.816406 16.253906 L 44.648438 17.089844 L 43.933594 17.804688 L 43.226562 18.523438 L 42.386719 17.675781 L 41.539062 16.828125 L 42.242188 16.121094 C 42.625 15.734375 42.949219 15.417969 42.960938 15.417969 C 42.976562 15.417969 43.359375 15.796875 43.816406 16.253906 Z M 13.539062 16.339844 L 14.242188 17.046875 L 12.578125 18.71875 L 11.871094 18.007812 L 11.15625 17.289062 L 11.972656 16.464844 C 12.425781 16.007812 12.804688 15.636719 12.820312 15.636719 C 12.832031 15.636719 13.15625 15.953125 13.539062 16.339844 Z M 47.738281 18.113281 L 47.03125 18.832031 L 46.199219 17.992188 L 45.367188 17.15625 L 46.789062 15.726562 L 48.453125 17.398438 Z M 9.734375 16.648438 L 10.433594 17.355469 L 9.589844 18.203125 L 8.75 19.050781 L 8.042969 18.332031 L 7.328125 17.617188 L 8.160156 16.78125 C 8.613281 16.324219 9 15.945312 9.011719 15.945312 C 9.027344 15.945312 9.347656 16.261719 9.734375 16.648438 Z M 51.054688 16.5 L 51.472656 16.917969 L 50.78125 17.601562 C 50.398438 17.976562 50.0625 18.28125 50.035156 18.28125 C 50.007812 18.28125 49.804688 18.097656 49.589844 17.882812 L 49.195312 17.488281 L 49.722656 16.949219 C 50.507812 16.144531 50.578125 16.078125 50.613281 16.078125 C 50.628906 16.078125 50.828125 16.265625 51.054688 16.5 Z M 6.3125 17.980469 C 6.152344 18.148438 5.992188 18.28125 5.96875 18.28125 C 5.9375 18.28125 5.601562 17.976562 5.21875 17.601562 L 4.527344 16.921875 L 4.855469 16.589844 L 5.183594 16.253906 L 6.605469 17.683594 Z M 38.339844 19.257812 L 37.585938 20.015625 L 37.402344 19.882812 C 37.105469 19.675781 36.480469 19.039062 36.203125 18.660156 L 35.953125 18.316406 L 36.6875 17.570312 L 37.429688 16.828125 L 38.257812 17.664062 L 39.089844 18.5 Z M 19.136719 17.789062 C 19.65625 18.316406 19.863281 18.554688 19.839844 18.59375 C 19.746094 18.753906 19.171875 19.402344 18.953125 19.59375 C 18.652344 19.851562 18.21875 20.171875 18.167969 20.171875 C 18.148438 20.171875 17.8125 19.847656 17.414062 19.445312 L 16.691406 18.71875 L 17.523438 17.882812 C 17.976562 17.421875 18.363281 17.046875 18.375 17.046875 C 18.386719 17.046875 18.730469 17.382812 19.136719 17.789062 Z M 42.066406 18.015625 L 42.898438 18.851562 L 42.195312 19.558594 L 41.496094 20.261719 L 40.679688 19.4375 C 40.222656 18.984375 39.855469 18.59375 39.855469 18.566406 C 39.855469 18.523438 41.167969 17.179688 41.210938 17.179688 C 41.226562 17.179688 41.609375 17.554688 42.066406 18.015625 Z M 22.070312 18.125 C 22.566406 20.71875 23.117188 22.109375 24.601562 24.503906 C 24.792969 24.8125 24.9375 25.078125 24.925781 25.089844 C 24.914062 25.101562 24.679688 24.96875 24.40625 24.792969 C 23.113281 23.972656 21.582031 23.199219 20.476562 22.808594 C 20 22.640625 18.660156 22.328125 17.597656 22.132812 L 17.195312 22.058594 L 17.878906 21.710938 C 18.796875 21.253906 19.273438 20.90625 20.015625 20.152344 C 20.828125 19.332031 21.320312 18.625 21.730469 17.664062 C 21.824219 17.453125 21.902344 17.28125 21.902344 17.285156 C 21.90625 17.285156 21.980469 17.664062 22.070312 18.125 Z M 34.167969 17.410156 C 34.167969 17.503906 34.585938 18.332031 34.820312 18.71875 C 35.433594 19.710938 36.296875 20.59375 37.304688 21.261719 C 37.671875 21.503906 38.691406 22.023438 38.800781 22.023438 C 38.972656 22.023438 38.75 22.082031 38.015625 22.222656 C 36.886719 22.441406 35.949219 22.683594 35.285156 22.925781 C 34.292969 23.289062 32.828125 24.035156 31.613281 24.808594 C 31.355469 24.976562 31.125 25.105469 31.101562 25.097656 C 31.085938 25.089844 31.21875 24.835938 31.414062 24.53125 C 32.292969 23.117188 33.0625 21.546875 33.390625 20.503906 C 33.539062 20.023438 33.804688 18.886719 33.953125 18.09375 C 34.03125 17.667969 34.117188 17.324219 34.132812 17.335938 C 34.152344 17.351562 34.167969 17.386719 34.167969 17.410156 Z M 15.28125 18.09375 L 15.96875 18.785156 L 15.136719 19.625 L 14.304688 20.460938 L 13.605469 19.753906 L 12.90625 19.050781 L 13.722656 18.226562 C 14.175781 17.769531 14.554688 17.398438 14.570312 17.398438 C 14.582031 17.398438 14.902344 17.710938 15.28125 18.09375 Z M 45.988281 19.875 L 45.28125 20.59375 L 44.449219 19.753906 L 43.617188 18.917969 L 45.039062 17.488281 L 46.703125 19.160156 Z M 11.484375 18.410156 L 12.183594 19.117188 L 11.339844 19.964844 L 10.5 20.8125 L 9.792969 20.09375 L 9.078125 19.382812 L 9.910156 18.542969 C 10.363281 18.085938 10.75 17.707031 10.761719 17.707031 C 10.777344 17.707031 11.097656 18.023438 11.484375 18.410156 Z M 49.261719 18.21875 L 49.632812 18.59375 L 49.480469 18.730469 C 49.269531 18.910156 48.039062 19.734375 47.976562 19.734375 C 47.949219 19.734375 47.820312 19.625 47.6875 19.492188 L 47.445312 19.25 L 48.148438 18.542969 C 48.53125 18.15625 48.855469 17.839844 48.867188 17.839844 C 48.882812 17.839844 49.0625 18.011719 49.261719 18.21875 Z M 8.214844 19.589844 C 8.136719 19.667969 8.054688 19.734375 8.023438 19.734375 C 7.960938 19.734375 6.734375 18.914062 6.519531 18.730469 L 6.367188 18.59375 L 6.648438 18.304688 L 6.933594 18.015625 L 7.644531 18.730469 L 8.355469 19.441406 Z M 40.832031 20.929688 L 40.492188 21.269531 L 40.207031 21.203125 C 39.566406 21.058594 38.78125 20.757812 38.285156 20.472656 L 38.054688 20.335938 L 38.765625 19.617188 L 39.484375 18.894531 L 40.324219 19.742188 L 41.167969 20.59375 Z M 17.472656 20.605469 C 16.949219 20.875 16.070312 21.164062 15.46875 21.269531 L 15.164062 21.324219 L 14.902344 21.058594 L 14.632812 20.789062 L 16.296875 19.117188 L 16.984375 19.808594 L 17.675781 20.503906 Z M 44.929688 20.929688 C 44.929688 21.058594 44.078125 21.265625 43.144531 21.367188 L 42.652344 21.421875 L 42.269531 21.042969 L 41.890625 20.660156 L 42.589844 19.953125 L 43.289062 19.25 L 44.109375 20.074219 C 44.5625 20.527344 44.929688 20.914062 44.929688 20.929688 Z M 13.226562 20.164062 L 13.914062 20.855469 L 13.347656 21.421875 L 12.855469 21.367188 C 12.382812 21.320312 11.5 21.15625 11.140625 21.050781 L 10.96875 21 L 11.730469 20.234375 C 12.148438 19.8125 12.5 19.46875 12.511719 19.46875 C 12.527344 19.46875 12.84375 19.78125 13.226562 20.164062 Z M 47.335938 19.800781 C 47.441406 19.90625 47.519531 20.003906 47.507812 20.011719 C 47.390625 20.089844 46.117188 20.660156 46.054688 20.660156 C 46.023438 20.660156 47.09375 19.601562 47.117188 19.601562 C 47.132812 19.601562 47.234375 19.6875 47.335938 19.800781 Z M 8.992188 20.089844 L 9.296875 20.402344 L 8.902344 20.210938 C 8.6875 20.109375 8.5 20.015625 8.492188 20.011719 C 8.480469 20.003906 8.664062 19.777344 8.683594 19.777344 C 8.683594 19.777344 8.824219 19.917969 8.992188 20.089844 Z M 41.78125 21.207031 L 41.972656 21.40625 L 41.695312 21.40625 C 41.535156 21.40625 41.367188 21.394531 41.308594 21.378906 C 41.207031 21.351562 41.207031 21.351562 41.371094 21.183594 C 41.460938 21.085938 41.550781 21.011719 41.5625 21.011719 C 41.574219 21.011719 41.675781 21.097656 41.78125 21.207031 Z M 14.351562 21.296875 L 14.449219 21.40625 L 14.03125 21.40625 L 14.132812 21.296875 C 14.1875 21.234375 14.234375 21.1875 14.242188 21.1875 C 14.246094 21.1875 14.292969 21.234375 14.351562 21.296875 Z M 14.351562 21.296875 "/>
</g>
</svg>
